Patient4_TMGait_0pt8_01_right_10_EMG.mot
version=1
nRows=26
nColumns=33
inDegrees=no
endheader
time	1LAddLong	2LGlutMax	3LGlutMed	4LIliopsoas	5LSemiMemb	6LBicFemLong	7LRecFem	8LVastMed	9LVastLat	10LGasMed	11LTibAnt	12lTibPost	13LPeroneusLong	14LSol	15LExtDigLong	16LFlexDigLong	17RAddLong	18RGlutMax	19RGlutMed	20RIliopsoas	21RSemiMemb	22RBicFemLong	23RRecFem	24RVastMed	25RVastLat	26RGasMed	27RTibAnt	28RTibPost	29RPeroneusLong	30RSol	31RExtDigLong	32RFlexDigLong
11.755	-0.012512	-0.19211	-0.009613	0.015106	-0.040894	0.13962	0.064697	-0.016785	0.034027	-0.011902	0.021362	0.021362	-0.032501	0.018463	-0.029297	-0.004578	0.023651	0.037079	-0.19867	0.24735	0.42068	-0.082397	-0.14816	-0.10391	0.01358	0.005188	-0.38788	-0.002899	-0.015564	0.43778	-0.004578	-0.013733
11.756	-0.030823	-0.19608	0.001068	0.011292	-0.17258	0.22049	0.071411	-0.002747	0.024719	-0.009918	-0.11383	0.036316	0.20248	0.074615	0.005341	0.01236	0.027008	0.052032	-0.21072	0.20218	0.41611	-0.031281	-0.14954	-0.048676	0.018616	0.004883	-0.4509	-0.009308	-0.050507	-0.13046	-0.00061	-0.016174
11.757	-0.037537	-0.168	-0.015717	0.007019	-0.19745	0.14435	0.062256	0.001678	0.010529	-0.034637	-0.10803	0.030823	0.224	0.040436	0.059357	0.018311	0.008087	0.060577	-0.17258	0.11231	0.26367	0.042267	-0.13138	-0.069275	0.029449	-0.005188	-0.28931	-0.011902	-0.16861	-0.07843	-0.005035	-0.010681
11.758	-0.017548	-0.17136	-0.032654	-0.002289	-0.028839	0.13107	0.066528	-0.002136	0.00061	-0.041351	0.030518	0.035706	-0.27954	0.007477	0.13718	0.012817	0.01236	0.048676	-0.59555	0.045776	0.13458	0.070038	-0.12833	-0.091248	0.048218	0.000458	-0.22964	-0.016022	0.081024	0.15564	-0.007935	-0.012512
11.759	-0.018158	-0.18478	-0.072784	-0.029449	0.001221	0.20355	0.094147	0.00412	0.004272	-0.000305	0.15533	0.037079	-0.084229	0.005798	0.09491	0.010529	0.007477	0.066681	-0.73334	-0.00885	0.17395	0.070801	-0.078888	-0.085602	0.036011	0.005035	-0.093231	-0.020142	0.1062	-0.059509	-0.007019	-0.016785
11.76	-0.019379	-0.14786	-0.095367	-0.032043	-0.019684	0.19012	0.11871	-0.002441	-0.005798	-0.021973	0.063019	0.031128	-0.11215	0.044861	0.007935	0.019379	-0.042267	0.068817	-0.28778	-0.043182	0.40878	0.074768	-0.058746	-0.054932	0.024261	-0.007324	-0.004578	-0.036011	0.36926	-0.15396	-0.003662	-0.01236
11.761	0.005035	-0.1268	-0.042725	0.000458	0.026703	0.1561	0.056915	0.001831	-0.028381	-0.020905	-0.014648	0.043335	-0.46906	0.027313	0.005188	0.003815	-0.014038	0.04364	-0.25482	-0.019989	0.41931	0.033569	-0.081635	-0.072784	0.016785	-0.01709	0.05249	-0.0177	0.24521	-0.45258	-0.002136	-0.013275
11.762	0.007629	-0.12009	-0.014496	0.02243	0.040283	0.15762	0.080261	-0.049744	-0.048218	-0.024719	-0.015717	0.04303	-0.12741	-0.045013	-0.019836	-0.003967	-0.00885	0.031433	-0.47577	-0.045471	0.35706	0.002136	-0.042572	-0.021515	0.018158	-0.006256	0.050201	-0.016937	-0.22873	-0.17364	-0.003204	-0.013123
11.763	0.005341	-0.15823	0.008698	0.007782	-0.005951	0.070953	0.10635	0.00412	-0.075378	-0.009766	-0.017395	0.04364	0.26794	-0.068512	-0.0354	-0.004272	-0.014648	-0.012512	-0.53696	-0.082245	0.29221	-0.018921	-0.058746	-0.033112	0.015869	0.020905	0.11917	-0.072784	-0.085297	-0.4393	-0.001678	-0.019226
11.764	0.003815	-0.17853	0.097046	-0.020142	-0.019531	-0.11643	0.032501	0.007629	-0.041962	-0.020752	-0.019836	0.053711	0.4541	-0.022278	-0.002441	-0.014343	-0.001831	-0.008698	-0.52475	-0.085297	0.29282	-0.021362	-0.006561	-0.06485	0.014954	0.069885	0.060883	-0.32547	0.5809	-1.1057	-0.004272	-0.021667
11.765	0.013733	-0.17334	0.13977	0.000458	-0.090332	-0.084991	-0.13886	0.013733	0.056152	0.012817	-0.020294	0.050659	0.16708	-0.14664	-0.045013	-0.025635	0.000458	-0.012665	-0.46875	-0.084839	0.3067	-0.041046	-0.012665	-0.009918	0.03006	0.09552	-0.095062	-0.23621	0.55145	-0.81024	-0.00412	-0.012512
11.766	0.007935	-0.070648	0.064087	0.025177	-0.121	-0.10559	-0.21011	0.023041	0.1152	0.015717	-0.019531	0.038147	0.32227	-0.076599	-0.056	-0.032501	0.006561	0.050659	-0.46341	-0.10025	0.26932	-0.040894	-0.045929	-0.074921	0.024109	0.046082	-0.062408	-0.33264	0.062256	-1.0483	0.000305	-0.017395
11.767	0.014038	-0.022736	-0.00061	0.032501	0.021667	-0.18555	-0.13168	0.02533	0.010834	0.003204	-0.025177	0.036926	0.27329	-0.024414	-0.02121	-0.031281	0.018158	0.007019	-0.36331	-0.079193	0.23468	-0.040894	-0.04425	-0.11047	0.005951	-0.077057	-0.04364	-0.082855	-0.06424	-1.6087	-0.001373	-0.030823
11.768	0.020752	-0.045929	0.044556	0.009003	0.14343	-0.27817	-0.12787	0.021973	0.060577	-0.020905	-0.023193	0.049133	0.18997	-0.15533	-0.007477	-0.04364	0.036621	-0.09903	-0.3212	-0.068512	0.22797	-0.027771	-0.04776	-0.063324	0.030365	-0.071716	-0.050201	0.093689	-0.17181	-1.2648	-0.006256	-0.021057
11.769	0.04303	-0.019379	0.018768	0.006104	0.086365	-0.24002	-0.11398	0.022888	0.23438	-0.056305	-0.009613	0.028534	-0.073242	-0.13321	0.03952	-0.042267	0.040131	-0.031891	-0.36789	-0.050049	0.24139	-0.076904	-0.054169	-0.083008	0.021362	-0.083313	0.010681	0.14374	-0.25925	-0.87082	-0.00061	-0.024414
11.77	0.046539	0.049744	0.024567	-0.007172	0.06012	-0.30853	-0.092316	0.018311	0.46112	-0.10895	-0.02182	0.038147	-0.43274	-0.18005	0.037842	-0.054779	0.055695	-0.059357	-0.35934	-0.036774	0.13199	-0.041504	-0.078583	-0.073547	0.027466	-0.082397	0.07431	0.50598	-0.029144	0.069122	0.002441	-0.027771
11.771	0.028076	0.20783	0.020752	0.001984	0.049438	-0.27725	-0.12528	0.016327	0.45136	-0.086212	-0.002136	0.013275	-0.25314	-0.14648	-0.078125	-0.059357	0.040894	-0.032501	-0.3392	-0.046844	0.024872	-0.043335	-0.039063	-0.044861	0.031891	-0.065002	0.11047	0.17868	-0.076141	1.6405	-0.003052	-0.016632
11.772	0.015869	0.22095	0.058136	0.001221	0.043488	-0.1033	-0.059814	0.006104	0.34821	-0.062408	0.00946	0.000305	-0.12894	-0.079956	-0.14587	-0.046082	0.054779	-0.072327	-0.23499	-0.05249	0.22675	-0.11597	0.003815	-0.12344	0.011749	-0.022888	0.026398	0.037384	0.099335	1.2944	-0.005798	-0.022278
11.773	-0.004578	0.27985	0.15869	-0.002136	0.059204	0.095062	-0.046387	0.00824	0.30228	-0.022888	-0.012207	0.002899	-0.1059	0.055847	-0.07431	-0.079346	0.028687	-0.001984	-0.18234	-0.050964	0.26398	-0.22125	0.022888	-0.084839	0.013885	0.003967	-0.030212	0.18158	0.10864	0.88699	-0.00946	-0.010986
11.774	-0.019684	0.27817	0.16724	0.023956	0.038757	0.27268	-0.11978	0.015717	0.19608	0.026093	-0.006256	-0.005493	-0.009003	0.10468	-0.023193	-0.058746	0.00824	-0.086517	-0.14801	-0.052338	0.2681	-0.21378	0.007629	-0.034485	0.020294	-0.072479	-0.065765	0.17792	-0.054321	0.50873	-0.003052	-0.009613
11.775	-0.040436	0.27634	0.072479	0.018311	0.046844	0.33905	-0.031281	0.00885	-0.097198	0.06424	-0.002289	-0.028992	0.17868	0.018311	0.039825	-0.057526	-0.053711	-0.044861	-0.11078	-0.028381	0.13367	-0.15533	-0.014343	0.021057	0.031891	-0.030823	0.007782	0.14618	-0.47333	-0.18707	-0.000916	0.003967
11.776	-0.054321	0.28427	0.008087	0.000153	0.050354	0.30594	-0.026703	0.011749	-0.42404	0.015411	-0.003815	-0.034027	0.13275	0.14938	0.10468	-0.063934	-0.046539	-0.043182	-0.12619	-0.045624	0.20889	-0.17456	0.015106	-0.018768	0.045471	-0.005798	0.063019	0.058746	-0.64163	0.59341	-0.007477	0.008087
11.777	-0.069427	0.298	-0.03067	-0.030212	0.011902	0.12238	0.016937	0.013428	-0.54184	-0.025024	-0.014343	-0.036163	-0.37155	0.31754	0.075531	-0.06073	-0.033875	0.019226	-0.10284	-0.098419	0.19898	-0.058289	0.002441	-0.013733	0.038147	0.009308	0.083466	-0.052338	-0.64056	1.1073	-0.003052	0.009155
11.778	-0.054474	0.22812	-0.054016	-0.003052	-0.032959	-0.018616	0.043793	0.007782	-0.33676	-0.06424	0.075378	-0.041962	-0.045319	0.30609	0.018311	-0.062256	-0.012665	0.11688	-0.13351	-0.11047	0.20889	0.075073	0.070038	-0.009003	0.034637	0.031738	0.048676	-0.83008	-0.36499	0.49316	-0.001068	0.003967
11.779	-0.038605	0.2034	-0.092163	0.03067	-0.042114	-0.35004	0.019989	0.006104	-0.17059	-0.11032	0.065308	-0.052948	0.50293	0.37689	-0.007019	-0.055237	-0.015411	0.13016	-0.20126	-0.17975	-0.061798	0.15533	0.0914	0.030518	0.024872	0.023193	0.046234	0.032043	0.001068	-0.088501	0.000916	-0.015717
11.78	-0.018463	0.16388	-0.028992	0.018616	0.008698	-0.32105	0.043945	0.001373	-0.10681	-0.11292	0.077209	-0.052643	-0.0914	0.39642	-0.036011	-0.043488	-0.016937	0.12299	-0.079956	-0.22629	-0.020142	0.20844	0.095978	0.060577	0.029297	0.027161	0.039978	0.47638	0.32791	-0.18356	-0.004272	-0.020142
